<svg width="335" height="519" viewBox="0 0 335 519" fill="none" xmlns="http://www.w3.org/2000/svg">
<path opacity="0.24" d="M41.6357 24.355H321.636C327.159 24.355 331.636 28.832 331.636 34.355V467.267C331.636 493.777 310.146 515.267 283.636 515.267H41.6357C36.1127 515.267 31.6357 510.79 31.6357 505.267V34.355C31.6357 28.832 36.1127 24.355 41.6357 24.355Z" fill="black" stroke="black" stroke-width="6" stroke-linecap="round" stroke-linejoin="round"/>
<path d="M13 3H293C298.523 3 303 7.47702 303 13V445.91C303 472.42 281.51 493.91 255 493.91H13C7.477 493.91 3 489.433 3 483.91V13C3 7.47702 7.477 3 13 3Z" fill="#FCA417"/>
<path opacity="0.33" d="M14.818 480.273V16.637C14.818 9.10601 20.923 3 28.455 3H16.636C9.10499 3.001 3 9.10601 3 16.637V480.273C3 487.804 9.10499 493.909 16.636 493.91H28.455C20.923 493.91 14.818 487.804 14.818 480.273Z" fill="white"/>
<path d="M93.0001 391.637C121.618 391.637 144.818 368.437 144.818 339.819C144.818 311.201 121.618 288.001 93.0001 288.001C64.3818 288.001 41.1821 311.201 41.1821 339.819C41.1821 368.437 64.3818 391.637 93.0001 391.637Z" fill="#FCA84C"/>
<path opacity="0.66" d="M55.0662 309.473C72.5492 287.623 104.224 283.605 126.609 300.398C126.198 300.048 125.793 299.698 125.369 299.354C103.021 281.477 70.4122 285.102 52.5352 307.45C34.6582 329.798 38.2832 362.407 60.6312 380.283C61.0552 380.622 61.4902 380.939 61.9212 381.263C40.6222 363.112 37.5872 331.327 55.0662 309.473Z" fill="#FCA84C"/>
<path d="M289.364 3.00004H276.864C284.44 2.98204 290.62 9.06205 290.727 16.637V428.455C290.62 464.649 261.239 493.928 225.045 493.91H237.545C273.695 493.91 303 464.605 303 428.455V16.637C303 9.10605 296.895 3.00104 289.364 3.00004Z" fill="#FCA84C"/>
<path d="M197.72 493.91H237.545C273.695 493.91 303 464.605 303 428.455V388.629L197.72 493.91Z" fill="#FCA84C"/>
<path d="M237.545 484.364H25.0451C19.8991 484.364 15.7271 488.536 15.7271 493.682V493.91H237.545C295.649 493.91 303 464.605 303 428.455V418.91C302.999 455.059 273.694 484.364 237.545 484.364Z" fill="#FCA84C"/>
<path d="M255 496.91H13C5.832 496.91 0 491.078 0 483.91V13C0 5.83202 5.832 0 13 0H293C300.168 0 306 5.83202 306 13V445.91C306 474.031 283.121 496.91 255 496.91ZM13 6.00002C9.14 6.00002 6 9.14002 6 13V483.91C6 487.769 9.14 490.91 13 490.91H255C279.813 490.91 300 470.723 300 445.91V13C300 9.14002 296.859 6.00002 293 6.00002H13Z" fill="black"/>
<path d="M47.9092 58.9099H258.091C260.3 58.9099 262.091 60.7009 262.091 62.9099V214.948C262.091 223.785 254.928 230.948 246.091 230.948H47.9092C45.7002 230.948 43.9092 229.157 43.9092 226.948V62.9099C43.9092 60.7009 45.7002 58.9099 47.9092 58.9099Z" fill="#514447"/>
<path d="M246.091 232.948H47.9092C44.6002 232.948 41.9092 230.257 41.9092 226.948V62.9099C41.9092 59.6009 44.6002 56.9099 47.9092 56.9099H258.091C261.4 56.9099 264.091 59.6009 264.091 62.9099V214.948C264.091 224.873 256.016 232.948 246.091 232.948ZM47.9092 60.9099C46.8062 60.9099 45.9092 61.8069 45.9092 62.9099V226.948C45.9092 228.051 46.8062 228.948 47.9092 228.948H246.091C253.811 228.948 260.091 222.668 260.091 214.948V62.9099C260.091 61.8069 259.194 60.9099 258.091 60.9099H47.9092Z" fill="black"/>
<path d="M85.8179 86.4031H220.182C220.734 86.4031 221.182 86.8511 221.182 87.4031V210.858C221.182 211.41 220.734 211.858 220.182 211.858H85.8179C85.2659 211.858 84.8179 211.41 84.8179 210.858V87.4031C84.8179 86.8511 85.2659 86.4031 85.8179 86.4031Z" fill="#83906F"/>
<path d="M220.182 213.858H85.8179C84.1639 213.858 82.8179 212.512 82.8179 210.858V87.4031C82.8179 85.7491 84.1639 84.4031 85.8179 84.4031H220.182C221.836 84.4031 223.182 85.7491 223.182 87.4031V210.858C223.182 212.512 221.836 213.858 220.182 213.858ZM86.8179 209.858H219.182V88.4031H86.8179V209.858ZM220.182 88.4031H220.192H220.182Z" fill="black"/>
<path d="M303 32.273H3C1.896 32.273 1 31.377 1 30.273V16.637C1 8.01501 8.01399 1 16.636 1H289.365C297.987 1 305.001 8.01501 305.001 16.637V30.273C305 31.377 304.104 32.273 303 32.273ZM5 28.273H301V16.637C301 10.22 295.78 5.00002 289.364 5.00002H16.636C10.22 5.00002 5 10.221 5 16.637V28.273Z" fill="black"/>
<path d="M262.091 258.637H181.636C180.532 258.637 179.636 257.741 179.636 256.637C179.636 255.533 180.532 254.637 181.636 254.637H262.091C263.195 254.637 264.091 255.533 264.091 256.637C264.091 257.741 263.195 258.637 262.091 258.637Z" fill="black"/>
<path d="M124.364 258.637H43.9092C42.8052 258.637 41.9092 257.741 41.9092 256.637C41.9092 255.533 42.8052 254.637 43.9092 254.637H124.364C125.468 254.637 126.364 255.533 126.364 256.637C126.364 257.741 125.469 258.637 124.364 258.637Z" fill="black"/>
<path d="M60.5181 328.682H127.756C130.276 328.682 132.319 330.725 132.319 333.245V346.392C132.319 348.912 130.276 350.955 127.756 350.955H60.5181C57.9981 350.955 55.9551 348.912 55.9551 346.392V333.245C55.9551 330.725 57.9981 328.682 60.5181 328.682Z" fill="#664A4A"/>
<path d="M87.562 301.637H100.71C103.23 301.637 105.272 303.679 105.272 306.199V373.438C105.272 375.958 103.23 378 100.71 378H87.562C85.042 378 83 375.958 83 373.438V306.199C83.001 303.68 85.043 301.638 87.562 301.637Z" fill="#664A4A"/>
<path d="M99.0511 380.002H89.6761C85.1431 380.002 81.4551 376.314 81.4551 371.781V352.86C81.4551 352.789 81.3961 352.73 81.3241 352.73H62.1761C57.7671 352.725 54.1821 349.136 54.1821 344.73V334.901C54.1821 330.493 57.7681 326.907 62.1761 326.907H81.3211C81.3931 326.907 81.4521 326.848 81.4521 326.776V307.401C81.4521 303.118 84.9361 299.633 89.2191 299.633H99.0481C103.581 299.633 107.27 303.321 107.27 307.855V326.779C107.27 326.851 107.329 326.91 107.401 326.91H126.553H126.555C130.961 326.91 134.546 330.494 134.547 334.9V344.276C134.547 348.934 130.757 352.724 126.099 352.724H107.402C107.33 352.724 107.272 352.783 107.272 352.855V371.781C107.272 376.314 103.584 380.002 99.0511 380.002ZM62.1761 330.907C59.9741 330.907 58.1821 332.699 58.1821 334.901V344.73C58.1821 346.933 59.9741 348.727 62.1781 348.73H81.3241C83.6011 348.73 85.4541 350.583 85.4551 352.859V371.781C85.4551 374.108 87.3491 376.002 89.6761 376.002H99.0511C101.379 376.002 103.273 374.108 103.273 371.781V352.855C103.273 350.578 105.126 348.724 107.403 348.724H126.1C128.553 348.724 130.548 346.729 130.548 344.276V334.901C130.548 333.836 130.132 332.833 129.378 332.079C128.624 331.325 127.622 330.91 126.556 330.91H126.555H126.552H107.4C105.122 330.908 103.27 329.055 103.27 326.779V307.855C103.27 305.527 101.375 303.633 99.0481 303.633H89.2191C87.1421 303.633 85.4521 305.323 85.4521 307.401V326.776C85.4521 329.053 83.5981 330.907 81.3211 330.907H62.1761Z" fill="black"/>
<path d="M210.085 377.62C198.789 377.615 189.635 368.454 189.639 357.158C189.641 351.74 191.793 346.544 195.622 342.711L230.334 308C238.322 300.012 251.273 300.012 259.261 308C267.249 315.988 267.249 328.939 259.261 336.927L224.548 371.639C220.719 375.484 215.511 377.638 210.085 377.62Z" fill="#FCA84C"/>
<path opacity="0.66" d="M197.18 371.638C189.204 363.645 189.204 350.704 197.18 342.711L231.893 308C235.533 304.351 240.426 302.226 245.577 302.056C245.317 302.046 245.06 302.018 244.798 302.018C239.371 302 234.163 304.154 230.334 308L195.622 342.711C187.634 350.693 187.629 363.638 195.611 371.626C199.449 375.466 204.656 377.623 210.085 377.62C210.347 377.62 210.604 377.591 210.864 377.582C205.713 377.411 200.82 375.286 197.18 371.638Z" fill="#FCA84C"/>
<path d="M244.797 336.098C252.328 336.098 258.433 329.993 258.433 322.462C258.433 314.931 252.328 308.826 244.797 308.826C237.266 308.826 231.161 314.931 231.161 322.462C231.161 329.993 237.266 336.098 244.797 336.098Z" fill="#FF1F1F"/>
<path d="M210.085 370.811C217.616 370.811 223.721 364.706 223.721 357.175C223.721 349.644 217.616 343.539 210.085 343.539C202.554 343.539 196.449 349.644 196.449 357.175C196.449 364.706 202.554 370.811 210.085 370.811Z" fill="#FF1F1F"/>
<path d="M244.797 338.098C236.176 338.098 229.161 331.083 229.161 322.462C229.161 313.841 236.176 306.826 244.797 306.826C253.418 306.826 260.433 313.841 260.433 322.462C260.433 331.083 253.418 338.098 244.797 338.098ZM244.797 310.826C238.381 310.826 233.161 316.046 233.161 322.462C233.161 328.878 238.381 334.098 244.797 334.098C251.213 334.098 256.433 328.878 256.433 322.462C256.433 316.046 251.213 310.826 244.797 310.826Z" fill="black"/>
<path d="M210.085 372.81C201.464 372.81 194.449 365.795 194.449 357.174C194.449 348.553 201.464 341.538 210.085 341.538C218.706 341.538 225.721 348.553 225.721 357.174C225.721 365.795 218.706 372.81 210.085 372.81ZM210.085 345.539C203.669 345.539 198.449 350.759 198.449 357.175C198.449 363.591 203.669 368.811 210.085 368.811C216.501 368.811 221.721 363.591 221.721 357.175C221.721 350.759 216.501 345.539 210.085 345.539Z" fill="black"/>
<path d="M127.098 434.555C125.818 434.555 124.537 434.068 123.563 433.093L121.459 430.989C120.515 430.046 119.995 428.79 119.995 427.454C119.995 426.119 120.515 424.863 121.459 423.919L142.599 402.78C143.543 401.836 144.799 401.315 146.134 401.315C147.469 401.315 148.725 401.836 149.669 402.78L151.772 404.883C152.717 405.827 153.237 407.083 153.237 408.418C153.237 409.754 152.716 411.01 151.772 411.954L130.634 433.093C129.659 434.067 128.378 434.555 127.098 434.555ZM146.134 405.315C145.979 405.315 145.682 405.353 145.427 405.608L124.287 426.747C124.033 427.002 123.995 427.3 123.995 427.454C123.995 427.609 124.033 427.906 124.287 428.161L126.391 430.265C126.78 430.654 127.415 430.655 127.806 430.264L148.944 409.125C149.199 408.87 149.237 408.573 149.237 408.418C149.237 408.264 149.199 407.966 148.944 407.711L146.841 405.608C146.586 405.353 146.289 405.315 146.134 405.315Z" fill="black"/>
<path d="M161.315 434.557C159.98 434.557 158.724 434.036 157.78 433.092L155.677 430.989C154.733 430.045 154.212 428.789 154.212 427.454C154.212 426.118 154.733 424.862 155.677 423.918L176.816 402.779C178.765 400.83 181.936 400.831 183.887 402.778C183.887 402.779 183.887 402.779 183.887 402.779L185.99 404.883C186.934 405.826 187.455 407.082 187.455 408.418C187.455 409.753 186.934 411.009 185.99 411.953L164.851 433.092C163.907 434.036 162.651 434.557 161.315 434.557ZM180.353 405.315C180.096 405.315 179.839 405.413 179.645 405.608L158.506 426.747C158.251 427.002 158.213 427.299 158.213 427.454C158.213 427.608 158.251 427.906 158.506 428.161L160.609 430.264C160.999 430.655 161.632 430.656 162.024 430.264L183.163 409.125C183.418 408.87 183.456 408.572 183.456 408.418C183.456 408.263 183.418 407.966 183.163 407.712L181.06 405.608C180.865 405.413 180.608 405.315 180.353 405.315Z" fill="black"/>
<path d="M246.244 458.24C245.476 458.24 244.709 457.947 244.123 457.361L227.73 440.968C226.558 439.797 226.558 437.897 227.73 436.726C228.902 435.554 230.8 435.554 231.972 436.726L248.365 453.119C249.537 454.29 249.537 456.19 248.365 457.361C247.779 457.947 247.012 458.24 246.244 458.24Z" fill="black"/>
<path d="M235.637 468.846C234.869 468.846 234.102 468.553 233.516 467.967L217.124 451.575C215.952 450.404 215.952 448.504 217.124 447.333C218.296 446.161 220.194 446.161 221.366 447.333L237.758 463.725C238.93 464.896 238.93 466.796 237.758 467.967C237.172 468.553 236.404 468.846 235.637 468.846Z" fill="black"/>
<path d="M257.814 446.669C257.046 446.669 256.279 446.376 255.693 445.79L239.3 429.398C238.128 428.227 238.128 426.328 239.3 425.156C240.472 423.984 242.37 423.984 243.542 425.156L259.935 441.548C261.107 442.719 261.107 444.618 259.935 445.79C259.35 446.376 258.582 446.669 257.814 446.669Z" fill="black"/>
<path d="M268.421 436.062C267.653 436.062 266.886 435.769 266.3 435.183L249.908 418.79C248.736 417.618 248.736 415.719 249.908 414.548C251.08 413.376 252.978 413.376 254.15 414.548L270.542 430.941C271.714 432.113 271.714 434.012 270.542 435.183C269.956 435.769 269.188 436.062 268.421 436.062Z" fill="black"/>
<path d="M279.028 425.456C278.26 425.456 277.493 425.163 276.907 424.577L260.514 408.185C259.342 407.014 259.342 405.115 260.514 403.943C261.686 402.771 263.584 402.771 264.756 403.943L281.149 420.335C282.321 421.506 282.321 423.405 281.149 424.577C280.563 425.163 279.796 425.456 279.028 425.456Z" fill="black"/>
<path d="M272.319 32.273H34.3643C33.2603 32.273 32.3643 31.377 32.3643 30.273V3C32.3643 1.896 33.2603 1 34.3643 1H272.319C273.423 1 274.319 1.896 274.319 3V30.273C274.319 31.377 273.424 32.273 272.319 32.273ZM36.3643 28.273H270.319V5.00002H36.3643V28.273Z" fill="black"/>
<path d="M162.091 75.9099H64.3643C63.2603 75.9099 62.3643 75.0139 62.3643 73.9099C62.3643 72.8059 63.2603 71.9099 64.3643 71.9099H162.091C163.195 71.9099 164.091 72.8059 164.091 73.9099C164.091 75.0139 163.195 75.9099 162.091 75.9099Z" fill="black"/>
<path d="M245.727 75.9099H214.365C213.261 75.9099 212.365 75.0139 212.365 73.9099C212.365 72.8059 213.261 71.9099 214.365 71.9099H245.727C246.831 71.9099 247.727 72.8059 247.727 73.9099C247.727 75.0139 246.831 75.9099 245.727 75.9099Z" fill="black"/>
<path d="M138.227 262.216C137.123 262.216 136.227 261.32 136.227 260.216V253.057C136.227 251.953 137.123 251.057 138.227 251.057C139.331 251.057 140.227 251.953 140.227 253.057V260.216C140.227 261.32 139.332 262.216 138.227 262.216Z" fill="black"/>
<path d="M148.076 262.216C146.972 262.216 146.076 261.32 146.076 260.216V253.057C146.076 251.953 146.972 251.057 148.076 251.057C149.18 251.057 150.076 251.953 150.076 253.057V260.216C150.076 261.32 149.181 262.216 148.076 262.216Z" fill="black"/>
<path d="M157.924 262.216C156.82 262.216 155.924 261.32 155.924 260.216V253.057C155.924 251.953 156.82 251.057 157.924 251.057C159.028 251.057 159.924 251.953 159.924 253.057V260.216C159.924 261.32 159.028 262.216 157.924 262.216Z" fill="black"/>
<path d="M167.773 262.216C166.669 262.216 165.773 261.32 165.773 260.216V253.057C165.773 251.953 166.669 251.057 167.773 251.057C168.877 251.057 169.773 251.953 169.773 253.057V260.216C169.773 261.32 168.878 262.216 167.773 262.216Z" fill="black"/>
<path d="M179 108.177L171.974 107.752L167.909 107.462V107.455H167.858H167.802V107.463L145.941 109.209H144.128L143.916 116.743L147.435 117.982L149.567 128.817L139.864 148.01L134 152.447V156.677L137.519 160.083L137.732 175.666L138.799 175.871V175.706L139.335 175.809V175.87L160.161 182.862L161.036 183.455L162.867 182.316L177.618 173.807L179 108.177ZM156.611 156.585L162.316 151.758L156.611 156.585ZM136.824 158.588L138.367 160.084V160.177L136.824 158.588Z" fill="url(#paint0_linear)"/>
<path d="M140.103 160.355L161 165.455L157.897 162.055L156.138 159.955L137.828 156.455L137 157.155L140.103 160.355Z" fill="black"/>
<path d="M136.431 157.287L157.892 162.455L158 157.062L151.853 154.59L139.559 152.455H136L136.431 157.287Z" fill="#664A4A"/>
<path d="M151.156 129.145L172 130.455V126.626L170.562 118.06L169.844 117.455L149 118.06L151.156 129.145Z" fill="#664A4A"/>
<path d="M146.839 109.455H145.806L145.6 117.026L149.006 118.271L151.071 129.161L141.677 148.452L136 152.912V157.164L139.406 160.587L139.613 176.248L140.645 176.455L140.439 160.898L137.032 157.268L136.929 152.912L142.4 148.556L152 129.265L149.935 118.271L146.529 116.819L146.839 109.455Z" fill="black"/>
<path d="M145.839 109.455H144.806L144.6 117.026L148.006 118.271L150.071 129.161L140.677 148.452L135 152.912V157.164L138.406 160.587L138.613 176.248L139.645 176.455L139.439 160.898L136.032 157.268L135.929 152.912L141.606 148.556L151 129.265L148.935 118.271L145.529 116.819L145.839 109.455Z" fill="black"/>
<path d="M146 115.832L146.51 116.75L149.365 118.455L172 117.668L169.808 116.816L167.463 115.504L167.769 114.455L146 115.832Z" fill="#A8A8A8"/>
<path d="M142 148.036L162.3 151.455L166.4 142.442L172 129.491L151.4 128.455L142 148.036Z" fill="#83906F"/>
<g opacity="0.1">
<path opacity="0.1" d="M152.611 132.881L166.686 134.011L159.391 148.394L145.728 146.339L152.611 132.881Z" fill="white"/>
</g>
<g opacity="0.1">
<path opacity="0.1" d="M153.582 133.926L154.203 133.976L153.882 134.61L153.279 134.52L153.582 133.926Z" fill="white"/>
</g>
<g opacity="0.1">
<path opacity="0.1" d="M153.685 139.885L154.306 139.935L153.985 140.569L153.382 140.478L153.685 139.885Z" fill="white"/>
</g>
<g opacity="0.1">
<path opacity="0.1" d="M157.075 134.645L157.697 134.695L157.375 135.329L156.772 135.239L157.075 134.645Z" fill="white"/>
</g>
<g opacity="0.1">
<path opacity="0.1" d="M163.547 134.953L164.169 135.003L163.847 135.637L163.244 135.547L163.547 134.953Z" fill="white"/>
</g>
<g opacity="0.1">
<path opacity="0.1" d="M154.815 135.775L155.436 135.825L155.115 136.459L154.512 136.369L154.815 135.775Z" fill="white"/>
</g>
<g opacity="0.1">
<path opacity="0.1" d="M157.075 142.042L157.697 142.092L157.375 142.726L156.772 142.636L157.075 142.042Z" fill="white"/>
</g>
<g opacity="0.1">
<path opacity="0.1" d="M151.527 138.446L152.149 138.497L151.827 139.131L151.224 139.04L151.527 138.446Z" fill="white"/>
</g>
<g opacity="0.1">
<path opacity="0.1" d="M160.979 134.645L161.6 134.695L161.279 135.329L160.676 135.239L160.979 134.645Z" fill="white"/>
</g>
<g opacity="0.1">
<path opacity="0.1" d="M156.047 138.138L156.669 138.188L156.347 138.822L155.744 138.732L156.047 138.138Z" fill="white"/>
</g>
<g opacity="0.1">
<path opacity="0.1" d="M155.328 134.234L155.95 134.284L155.628 134.918L155.025 134.828L155.328 134.234Z" fill="white"/>
</g>
<g opacity="0.1">
<path opacity="0.1" d="M158.513 137.83L159.135 137.88L158.813 138.514L158.21 138.424L158.513 137.83Z" fill="white"/>
</g>
<g opacity="0.1">
<path opacity="0.1" d="M159.233 134.645L159.854 134.695L159.533 135.329L158.93 135.239L159.233 134.645Z" fill="white"/>
</g>
<g opacity="0.1">
<path opacity="0.1" d="M152.76 136.083L153.382 136.134L153.06 136.767L152.457 136.677L152.76 136.083Z" fill="white"/>
</g>
<path d="M136 153.038L156.385 157.455L162 152.185L141.611 148.455L136 153.038Z" fill="#664A4A"/>
<path d="M140 159.455V175.473L160.683 182.455L161 165.821L160.156 164.274L156.357 163.357L140 159.455Z" fill="#FCA84C"/>
<path d="M143 150.455C143.552 150.455 144 150.231 144 149.955C144 149.679 143.552 149.455 143 149.455C142.448 149.455 142 149.679 142 149.955C142 150.231 142.448 150.455 143 150.455Z" fill="#575988"/>
<path d="M143.5 151.455C143.776 151.455 144 151.231 144 150.955C144 150.679 143.776 150.455 143.5 150.455C143.224 150.455 143 150.679 143 150.955C143 151.231 143.224 151.455 143.5 151.455Z" fill="#FA595F"/>
<path d="M141 151.455C141.552 151.455 142 151.231 142 150.955C142 150.679 141.552 150.455 141 150.455C140.448 150.455 140 150.679 140 150.955C140 151.231 140.448 151.455 141 151.455Z" fill="#FFD037"/>
<path d="M152 152.455C152.552 152.455 153 152.231 153 151.955C153 151.679 152.552 151.455 152 151.455C151.448 151.455 151 151.679 151 151.955C151 152.231 151.448 152.455 152 152.455Z" fill="#575988"/>
<path d="M150 153.455C150.552 153.455 151 153.231 151 152.955C151 152.679 150.552 152.455 150 152.455C149.448 152.455 149 152.679 149 152.955C149 153.231 149.448 153.455 150 153.455Z" fill="#FFD037"/>
<path d="M147 151.455C147.552 151.455 148 151.231 148 150.955C148 150.679 147.552 150.455 147 150.455C146.448 150.455 146 150.679 146 150.955C146 151.231 146.448 151.455 147 151.455Z" fill="#A8A8A8"/>
<path d="M153 153.455C153.552 153.455 154 153.231 154 152.955C154 152.679 153.552 152.455 153 152.455C152.448 152.455 152 152.679 152 152.955C152 153.231 152.448 153.455 153 153.455Z" fill="#FA595F"/>
<path d="M147 151.455H146.471L146.016 149.243C145.997 149.149 145.995 149.052 146.01 148.958C146.026 148.864 146.058 148.775 146.105 148.699C146.151 148.623 146.211 148.562 146.28 148.519C146.348 148.477 146.424 148.455 146.5 148.455V148.455C146.633 148.455 146.76 148.521 146.854 148.64C146.947 148.758 147 148.918 147 149.085V151.455Z" fill="#A8A8A8"/>
<path d="M156.5 153.455C157.328 153.455 158 153.231 158 152.955C158 152.679 157.328 152.455 156.5 152.455C155.672 152.455 155 152.679 155 152.955C155 153.231 155.672 153.455 156.5 153.455Z" fill="#A8A8A8"/>
<path d="M157 152.455H155.942L155.032 150.243C154.994 150.149 154.99 150.052 155.021 149.958C155.051 149.864 155.116 149.775 155.209 149.699C155.303 149.623 155.423 149.562 155.56 149.519C155.697 149.477 155.847 149.455 156 149.455V149.455C156.265 149.455 156.52 149.521 156.707 149.64C156.895 149.758 157 149.918 157 150.085V152.455Z" fill="#A8A8A8"/>
<path d="M146.521 109.255L168 107.455L167.479 115.396L146 116.455L146.521 109.255Z" fill="#FCA84C"/>
<path d="M168.075 107.455L178 108.177L176.642 173.807L161.44 183.455L160.396 182.733L160.343 165.551L157 161.837V156.677L162.851 151.621L172.776 129.847L171.366 117.413H172.097L167.448 115.814L168.075 107.455Z" fill="black"/>
<path d="M168.448 108.455L178 109.067L176.706 173.965L161.184 183.455V165.802L158 162.129V157.027L163.572 152.027L173.025 130.496L171.333 118.149L167.95 116.618L168.448 108.455Z" fill="#FCA417"/>
<path d="M151.764 146.897C150.222 150.215 146.426 149.355 146.426 149.355C146.23 149.166 145.003 148.85 144.072 148.632C143.475 148.491 143 148.392 143 148.392L144.303 146.506L145.28 146.714L146.738 147.025C146.738 147.025 153.312 143.58 151.764 146.897Z" fill="url(#paint1_linear)"/>
<g opacity="0.08">
<path opacity="0.08" d="M151.081 147.5C149.643 150.48 146.102 149.707 146.102 149.707C145.919 149.538 144.775 149.254 143.907 149.058C143.35 148.931 142.907 148.843 142.907 148.843L144.123 147.149L145.034 147.336L146.393 147.615C146.393 147.615 152.524 144.522 151.081 147.5Z" fill="url(#paint2_linear)"/>
</g>
<g opacity="0.1">
<path opacity="0.1" d="M145.035 147.336L143.905 149.059C143.349 148.932 142.906 148.844 142.906 148.844L144.121 147.15L145.035 147.336Z" fill="url(#paint3_linear)"/>
</g>
<path d="M132.21 141.291C132.21 141.291 137.626 149.474 143.425 149.455L145 147.119C145 147.119 139.693 143.454 138.987 141.542C138.726 140.832 138.189 139.858 137.615 138.902C135.854 135.975 131.104 137.887 132.148 141.104C132.169 141.167 132.189 141.23 132.21 141.291Z" fill="url(#paint4_linear)"/>
<g opacity="0.05">
<path opacity="0.05" d="M132.401 141.178C132.401 141.178 137.699 149.457 143.372 149.438L144.913 147.075C144.913 147.075 139.721 143.366 139.03 141.433C138.776 140.714 138.25 139.728 137.689 138.762C135.966 135.8 131.319 137.734 132.34 140.989C132.36 141.053 132.38 141.116 132.401 141.178Z" fill="url(#paint5_linear)"/>
</g>
<path d="M129 189.585L129.269 192.455C129.269 192.455 138.076 191.106 138 188.41C137.923 185.713 129 189.585 129 189.585Z" fill="url(#paint6_linear)"/>
<g opacity="0.1">
<path opacity="0.1" d="M128.952 189.302L129.201 192.179C129.201 192.179 137.338 190.827 137.268 188.124C137.197 185.421 128.952 189.302 128.952 189.302Z" fill="url(#paint7_linear)"/>
</g>
<path d="M138.143 190.281L138 192.455C138 192.455 149.42 191.73 148.988 189.681C148.556 187.631 142.524 188.771 142.524 188.771L138.143 190.281Z" fill="url(#paint8_linear)"/>
<path d="M138 166.168C138 166.168 137.361 168.018 136.545 170.137C135.764 172.166 134.822 174.446 134.123 175.599C132.694 177.956 132.49 185.238 132.49 185.238C132.218 186.417 133.579 188.706 133.579 188.706C130.858 191.687 128.34 189.955 128.34 189.955C128.816 189.053 128 186.487 128 186.487C128 186.487 129.089 174.628 129.77 174.073C130.452 173.518 130.994 170.744 130.994 170.744L130.386 161.318L130.246 159.159L136.096 156.455L136.518 158.605L136.936 160.734L138 166.168Z" fill="url(#paint9_linear)"/>
<g opacity="0.1">
<path opacity="0.1" d="M138.618 165.804C138.618 165.804 137.95 167.653 137.097 169.771C136.281 171.799 135.297 174.079 134.567 175.231C133.074 177.588 132.861 184.866 132.861 184.866C132.577 186.045 133.999 188.333 133.999 188.333C131.156 191.312 128.526 189.581 128.526 189.581C129.023 188.68 128.17 186.115 128.17 186.115C128.17 186.115 129.308 174.261 130.02 173.706C130.732 173.151 131.299 170.379 131.299 170.379L130.663 160.956L130.517 158.798L136.629 156.095L137.069 158.244L137.506 160.372L138.618 165.804Z" fill="url(#paint10_linear)"/>
</g>
<path d="M144 189.471C142.671 191.726 138.023 191.444 138.023 191.444V184.818C138.023 184.818 136.695 177.418 137.433 175.731C138.172 174.044 137.138 170.938 137.138 170.938L136.884 170.177L133.873 161.089L133 158.455H142.967C142.967 158.455 142.967 158.906 142.967 159.64C142.98 162.46 143.039 169.449 143.333 171.071C143.702 173.115 142.668 174.454 142.668 174.454C142.668 174.454 143.258 182.771 142.742 185.378C142.225 187.985 144 189.471 144 189.471Z" fill="url(#paint11_linear)"/>
<path d="M136.273 128.455C136.273 128.455 134.745 131.738 131.69 132.927C128.636 134.115 136.709 134.455 136.709 134.455C136.709 134.455 138.018 131.964 141 130.209L136.273 128.455Z" fill="url(#paint12_linear)"/>
<g opacity="0.1">
<path opacity="0.1" d="M142.956 159.413C141.766 159.642 139.661 160.034 137.505 160.375C136.375 160.554 135.232 160.718 134.199 160.838C132.608 161.021 131.278 161.098 130.662 160.955L130.516 158.797L136.627 156.094L137.068 158.243H142.953C142.953 158.243 142.953 158.691 142.956 159.413Z" fill="url(#paint13_linear)"/>
</g>
<path d="M144 158.67C144 158.67 131.84 161.06 130.329 160.309C128.819 159.558 128.457 157.647 128.89 155.53C129.323 153.414 128.89 148.157 128.098 141.466C127.7 138.097 128.578 135.836 129.549 134.421C129.976 133.811 130.55 133.313 131.221 132.97C131.892 132.627 132.64 132.451 133.398 132.455C134.713 132.45 135.991 132.878 137.025 133.669C137.329 133.905 137.635 134.098 137.886 134.164C138.084 134.216 138.381 134.42 138.718 134.698C140.219 135.956 141.161 137.729 141.347 139.647C141.471 140.919 141.604 142.521 141.668 144.139C141.734 145.522 141.72 146.907 141.624 148.288C141.557 149.299 141.607 150.314 141.772 151.314C142.333 155.003 144 158.67 144 158.67Z" fill="url(#paint14_linear)"/>
<g opacity="0.1">
<path opacity="0.1" d="M141.748 151.546C137.389 148.893 135.135 141.472 135.135 141.472C135.135 141.407 135.135 141.343 135.127 141.281C135.03 137.877 140.041 137.221 140.892 140.524C141.168 141.6 141.406 142.691 141.455 143.445C141.482 143.723 141.546 143.995 141.645 144.256C141.71 145.66 141.696 147.066 141.602 148.468C141.535 149.496 141.584 150.529 141.748 151.546V151.546Z" fill="url(#paint15_linear)"/>
</g>
<g opacity="0.1">
<path opacity="0.1" d="M135.312 130.208C136.021 131.38 136.582 132.56 138.022 132.761C138.728 131.864 139.55 131.064 140.465 130.381L135.842 128.232C135.842 128.232 136.113 128.966 135.312 130.208Z" fill="url(#paint16_linear)"/>
</g>
<path d="M139 132.455C141.761 132.455 144 130.44 144 127.955C144 125.47 141.761 123.455 139 123.455C136.239 123.455 134 125.47 134 127.955C134 130.44 136.239 132.455 139 132.455Z" fill="url(#paint17_linear)"/>
<g opacity="0.1">
<path opacity="0.1" d="M143.539 129.25C143.733 129.258 143.925 129.208 144.089 129.104C144.314 128.941 144.386 128.648 144.437 128.379C144.56 127.743 144.655 127.073 144.437 126.461C144.297 126.056 144.026 125.706 143.837 125.322C143.416 124.482 143.341 123.472 142.74 122.744C142.365 122.288 141.047 122.744 140.496 122.514C139.313 122.017 138.799 121.008 137.51 121.009C137.037 120.997 136.566 121.056 136.111 121.183C135.534 121.361 135.025 121.697 134.551 122.066C133.729 122.705 132.924 123.582 132.997 124.608C133.044 125.262 133.444 125.84 133.679 126.451C134.073 127.478 134.002 128.633 133.717 129.697C133.596 130.15 133.457 130.692 133.779 131.038C133.984 131.255 134.31 131.316 134.6 131.269C134.89 131.205 135.168 131.094 135.422 130.94C135.885 130.695 136.353 130.445 136.727 130.084C136.975 129.846 137.174 129.565 137.409 129.315C137.87 128.838 138.392 128.423 138.961 128.082C139.416 127.809 139.885 127.979 140.363 128.157C141.413 128.542 142.384 129.271 143.539 129.25Z" fill="url(#paint18_linear)"/>
</g>
<path d="M143.022 129.278C143.207 129.287 143.389 129.233 143.546 129.122C143.759 128.947 143.828 128.634 143.877 128.346C143.993 127.665 144.083 126.948 143.877 126.293C143.743 125.859 143.486 125.484 143.306 125.073C142.906 124.175 142.835 123.094 142.264 122.314C141.907 121.826 140.722 122.389 140.199 122.141C139.074 121.609 138.519 120.455 137.293 120.457C136.844 120.444 136.396 120.507 135.964 120.644C135.416 120.834 134.932 121.193 134.482 121.588C133.7 122.272 132.935 123.211 133.004 124.309C133.049 125.009 133.429 125.628 133.653 126.282C134.028 127.381 133.959 128.617 133.689 129.757C133.574 130.242 133.442 130.821 133.747 131.192C133.943 131.424 134.252 131.49 134.528 131.439C134.804 131.37 135.068 131.251 135.309 131.087C135.749 130.824 136.194 130.557 136.549 130.171C136.785 129.916 136.974 129.615 137.198 129.347C137.635 128.837 138.131 128.393 138.672 128.028C139.104 127.735 139.551 127.918 140.004 128.108C141.002 128.521 141.925 129.3 143.022 129.278Z" fill="url(#paint19_linear)"/>
<g opacity="0.05">
<path opacity="0.05" d="M141.748 151.546C141.585 150.53 141.536 149.5 141.602 148.473C141.696 147.071 141.711 145.665 141.645 144.261C141.581 142.617 141.452 140.991 141.328 139.699C141.143 137.75 140.211 135.948 138.725 134.672C138.396 134.389 138.102 134.181 137.903 134.129C137.656 134.063 137.353 133.866 137.053 133.627C136.044 132.822 137.326 134.389 137.656 134.672C139.141 135.948 140.074 137.75 140.258 139.699C140.381 140.991 140.512 142.617 140.576 144.261C140.641 145.665 140.627 147.071 140.532 148.473C140.466 149.5 140.515 150.53 140.678 151.546C141.231 155.289 142.878 159.01 142.878 159.01C142.878 159.01 134.838 160.634 131.096 160.807C134.028 161.012 143.943 159.01 143.943 159.01C143.943 159.01 142.301 155.287 141.748 151.546Z" fill="url(#paint20_linear)"/>
</g>
<path d="M151.592 152.285C149.563 154.409 146.618 152.993 146.618 152.993C146.498 152.813 145.554 152.327 144.834 151.974C144.371 151.748 144 151.576 144 151.576L145.505 150.455L146.267 150.81L147.403 151.34C147.403 151.34 153.624 150.16 151.592 152.285Z" fill="url(#paint21_linear)"/>
<g opacity="0.1">
<path opacity="0.1" d="M145.77 150.485L144.214 151.852C143.711 151.586 143.309 151.385 143.309 151.385L144.943 150.068L145.77 150.485Z" fill="url(#paint22_linear)"/>
</g>
<path d="M135.009 141.36C135.009 141.36 138 150.096 143.757 151.455L146 149.708C146 149.708 141.805 145.11 141.658 143.202C141.605 142.497 141.357 141.476 141.066 140.475C140.171 137.393 134.899 138.004 135.001 141.181C135.004 141.24 135.006 141.3 135.009 141.36Z" fill="url(#paint23_linear)"/>
<path opacity="0.05" d="M129 150.503C129 150.503 131.054 148.504 132.948 150.028C134.841 151.551 137.605 151.361 138 151.455" fill="url(#paint24_linear)"/>
<path d="M150.791 146.894C149.417 150.21 146.045 149.356 146.045 149.356C145.87 149.168 144.779 148.852 143.953 148.634C143.422 148.494 143 148.4 143 148.4L144.159 146.513L145.027 146.722L146.323 147.033C146.323 147.033 152.165 143.577 150.791 146.894Z" fill="#F7C4A7"/>
<path opacity="0.08" d="M150.791 146.894C149.417 150.21 146.045 149.356 146.045 149.356C145.87 149.168 144.779 148.852 143.953 148.634C143.422 148.494 143 148.4 143 148.4L144.159 146.513L145.027 146.722L146.323 147.033C146.323 147.033 152.165 143.577 150.791 146.894Z" fill="black"/>
<path opacity="0.1" d="M145 147.551L143.94 148.455C143.416 148.389 143 148.345 143 148.345L144.143 147.455L145 147.551Z" fill="black"/>
<path d="M132.209 141.286C132.209 141.286 137.625 149.476 143.423 149.455L145 147.122C145 147.122 139.693 143.454 138.987 141.541C138.726 140.835 138.189 139.856 137.616 138.902C135.85 135.974 131.105 137.887 132.148 141.106C132.168 141.165 132.188 141.225 132.209 141.286Z" fill="#8BD8F5"/>
<path d="M129 188.011L129.269 191.455C129.269 191.455 138.077 189.837 137.999 186.601C137.922 183.365 129 188.011 129 188.011Z" fill="#535461"/>
<path opacity="0.1" d="M129 188.011L129.269 191.455C129.269 191.455 138.077 189.837 137.999 186.601C137.922 183.365 129 188.011 129 188.011Z" fill="black"/>
<path d="M138.144 189.282L138 191.455C138 191.455 149.419 190.731 148.988 188.68C148.557 186.628 142.525 187.774 142.525 187.774L138.144 189.282Z" fill="#535461"/>
<path d="M138 164.879C138 164.879 137.424 166.673 136.689 168.732C135.986 170.702 135.138 172.915 134.509 174.034C133.227 176.323 133.041 183.391 133.041 183.391C132.797 184.535 134.021 186.757 134.021 186.757C131.572 189.652 129.306 187.969 129.306 187.969C129.735 187.093 129 184.603 129 184.603C129 184.603 129.979 173.091 130.592 172.553C131.205 172.016 131.694 169.322 131.694 169.322L131.146 160.172L131.02 158.081L136.287 155.455L136.669 157.542L137.041 159.608L138 164.879Z" fill="#663C3B"/>
<path d="M144 187.531C142.792 189.718 138.564 189.444 138.564 189.444V183.018C138.564 183.018 137.356 175.841 138.027 174.201C138.697 172.56 137.758 169.553 137.758 169.553L137.53 168.817L134.793 160.009L134 157.455H143.06C143.06 157.455 143.06 157.892 143.06 158.604C143.071 161.338 143.126 168.118 143.393 169.691C143.729 171.673 142.789 172.971 142.789 172.971C142.789 172.971 143.326 181.036 142.856 183.561C142.386 186.086 144 187.531 144 187.531Z" fill="#663C3B"/>
<path d="M136.745 128.455C136.745 128.455 135.37 132.285 132.621 133.671C129.872 135.058 137.138 135.455 137.138 135.455C137.138 135.455 138.316 132.546 141 130.502L136.745 128.455Z" fill="#F7C4A7"/>
<path opacity="0.1" d="M142.999 158.816C141.852 159.045 139.824 159.446 137.741 159.792C136.652 159.974 135.55 160.14 134.552 160.261C133.019 160.446 131.735 160.525 131.141 160.379L131 158.196L136.895 155.455L137.325 157.635H143C143 157.635 142.996 158.084 142.999 158.816Z" fill="black"/>
<path d="M144 158.672C144 158.672 132.6 161.057 131.184 160.31C129.768 159.564 129.429 157.648 129.834 155.532C130.239 153.417 129.834 148.16 129.092 141.47C128.718 138.101 129.542 135.841 130.452 134.425C130.844 133.819 131.379 133.322 132.009 132.978C132.639 132.634 133.343 132.454 134.059 132.455C135.296 132.451 136.497 132.879 137.459 133.667C137.743 133.903 138.031 134.097 138.266 134.162C138.452 134.213 138.73 134.418 139.043 134.696C140.46 135.967 141.344 137.738 141.513 139.647C141.631 140.918 141.754 142.52 141.814 144.14C141.877 145.522 141.863 146.907 141.774 148.288C141.712 149.298 141.758 150.313 141.913 151.313C142.436 155.011 144 158.672 144 158.672Z" fill="#8BD8F5"/>
<path opacity="0.1" d="M141 151.455C137.05 148.84 135.008 141.522 135.008 141.522C135.008 141.459 135.008 141.396 135.001 141.334C134.913 137.979 139.454 137.333 140.224 140.589C140.475 141.65 140.689 142.725 140.734 143.469C140.758 143.742 140.816 144.011 140.906 144.268C140.966 145.652 140.953 147.038 140.868 148.421C140.808 149.434 140.852 150.452 141 151.455Z" fill="black"/>
<path opacity="0.1" d="M135 130.637C135.825 131.931 136.478 133.235 138.155 133.455C138.975 132.468 139.931 131.585 141 130.828L135.621 128.455C135.621 128.455 135.931 129.267 135 130.637Z" fill="black"/>
<path d="M139.5 132.455C141.985 132.455 144 130.44 144 127.955C144 125.47 141.985 123.455 139.5 123.455C137.015 123.455 135 125.47 135 127.955C135 130.44 137.015 132.455 139.5 132.455Z" fill="#F7C4A7"/>
<path opacity="0.1" d="M143.024 129.478C143.209 129.485 143.392 129.435 143.547 129.335C143.76 129.176 143.829 128.89 143.877 128.629C143.993 128.014 144.083 127.358 143.877 126.762C143.744 126.367 143.491 126.027 143.307 125.653C142.906 124.834 142.835 123.854 142.265 123.145C141.908 122.701 140.657 123.145 140.133 122.921C139.005 122.437 138.52 121.456 137.296 121.457C136.845 121.445 136.396 121.502 135.962 121.627C135.415 121.799 134.931 122.129 134.481 122.485C133.698 123.107 132.935 123.961 133.004 124.959C133.05 125.596 133.429 126.153 133.653 126.752C134.028 127.754 133.96 128.876 133.689 129.91C133.574 130.351 133.441 130.878 133.747 131.216C133.938 131.426 134.252 131.487 134.532 131.44C134.809 131.378 135.074 131.27 135.316 131.12C135.755 130.882 136.2 130.639 136.555 130.288C136.79 130.056 136.98 129.782 137.203 129.54C137.639 129.076 138.135 128.673 138.677 128.34C139.11 128.074 139.554 128.237 140.011 128.412C141.005 128.79 141.927 129.499 143.024 129.478Z" fill="black"/>
<path d="M143.024 129.481C143.209 129.489 143.392 129.44 143.547 129.34C143.76 129.181 143.829 128.895 143.877 128.634C143.993 128.019 144.083 127.363 143.877 126.767C143.744 126.373 143.491 126.032 143.307 125.658C142.906 124.839 142.835 123.859 142.265 123.15C141.908 122.707 140.727 123.219 140.2 122.993C139.072 122.51 138.52 121.457 137.296 121.457C136.845 121.445 136.396 121.502 135.962 121.627C135.415 121.799 134.931 122.129 134.481 122.485C133.698 123.107 132.935 123.961 133.004 124.959C133.05 125.596 133.429 126.153 133.653 126.752C134.028 127.754 133.96 128.876 133.689 129.91C133.574 130.351 133.441 130.878 133.747 131.216C133.938 131.426 134.252 131.487 134.532 131.44C134.809 131.378 135.074 131.27 135.316 131.12C135.755 130.882 136.2 130.639 136.555 130.288C136.79 130.056 136.98 129.782 137.203 129.54C137.644 129.077 138.145 128.675 138.692 128.344C139.125 128.078 139.569 128.241 140.025 128.417C141.005 128.791 141.927 129.502 143.024 129.481Z" fill="#664A4A"/>
<path opacity="0.05" d="M141.941 151.319C141.79 150.319 141.746 149.306 141.809 148.297C141.896 146.916 141.909 145.532 141.848 144.15C141.789 142.53 141.668 140.93 141.552 139.658C141.385 137.749 140.515 135.979 139.12 134.707C138.813 134.428 138.538 134.224 138.356 134.173C138.125 134.108 137.842 133.914 137.561 133.679C136.618 132.887 137.816 134.43 138.125 134.707C139.52 135.979 140.389 137.749 140.556 139.658C140.672 140.929 140.793 142.53 140.853 144.15C140.914 145.532 140.901 146.916 140.813 148.297C140.752 149.307 140.797 150.322 140.95 151.322C141.466 155.006 143.005 158.67 143.005 158.67C143.005 158.67 135.494 160.269 132 160.44C134.739 160.647 144 158.67 144 158.67C144 158.67 142.457 155.003 141.941 151.319Z" fill="black"/>
<path d="M151.542 151.894C149.26 154.727 145.95 152.838 145.95 152.838C145.816 152.599 144.754 151.951 143.937 151.481C143.417 151.178 143 150.95 143 150.95L144.693 149.455L145.55 149.933L146.83 150.637C146.83 150.637 153.825 149.062 151.542 151.894Z" fill="#F7C4A7"/>
<path opacity="0.1" d="M146 149.921L144.103 151.455C143.491 151.157 143 150.931 143 150.931L144.992 149.455L146 149.921Z" fill="black"/>
<path d="M135.012 141.36C135.012 141.36 138.002 150.097 143.757 151.455L146 149.707C146 149.707 141.798 145.11 141.658 143.202C141.605 142.497 141.357 141.479 141.065 140.475C140.17 137.393 134.898 138.004 135.001 141.181C135.005 141.24 135.009 141.3 135.012 141.36Z" fill="#8BD8F5"/>
<path opacity="0.05" d="M130 150.503C130 150.503 131.825 148.504 133.509 150.027C135.193 151.55 137.649 151.36 138 151.455" fill="black"/>
<defs>
<linearGradient id="paint0_linear" x1="156.499" y1="183.458" x2="156.499" y2="107.455" gradientUnits="userSpaceOnUse">
<stop stop-color="#808080" stop-opacity="0.25"/>
<stop offset="0.54" stop-color="#808080" stop-opacity="0.12"/>
<stop offset="1" stop-color="#808080" stop-opacity="0.1"/>
</linearGradient>
<linearGradient id="paint1_linear" x1="4852.16" y1="1947.74" x2="4852.16" y2="1807.9" gradientUnits="userSpaceOnUse">
<stop stop-color="#808080" stop-opacity="0.25"/>
<stop offset="0.54" stop-color="#808080" stop-opacity="0.12"/>
<stop offset="1" stop-color="#808080" stop-opacity="0.1"/>
</linearGradient>
<linearGradient id="paint2_linear" x1="4534.81" y1="1764.37" x2="4534.81" y2="1638.82" gradientUnits="userSpaceOnUse">
<stop stop-color="#808080" stop-opacity="0.25"/>
<stop offset="0.54" stop-color="#808080" stop-opacity="0.12"/>
<stop offset="1" stop-color="#808080" stop-opacity="0.1"/>
</linearGradient>
<linearGradient id="paint3_linear" x1="1192.32" y1="993.468" x2="1192.32" y2="958.002" gradientUnits="userSpaceOnUse">
<stop stop-color="#808080" stop-opacity="0.25"/>
<stop offset="0.54" stop-color="#808080" stop-opacity="0.12"/>
<stop offset="1" stop-color="#808080" stop-opacity="0.1"/>
</linearGradient>
<linearGradient id="paint4_linear" x1="5852.39" y1="5502.18" x2="5852.39" y2="4084.98" gradientUnits="userSpaceOnUse">
<stop stop-color="#808080" stop-opacity="0.25"/>
<stop offset="0.54" stop-color="#808080" stop-opacity="0.12"/>
<stop offset="1" stop-color="#808080" stop-opacity="0.1"/>
</linearGradient>
<linearGradient id="paint5_linear" x1="5728.41" y1="5564.77" x2="5728.41" y2="4130.99" gradientUnits="userSpaceOnUse">
<stop stop-color="#808080" stop-opacity="0.25"/>
<stop offset="0.54" stop-color="#808080" stop-opacity="0.12"/>
<stop offset="1" stop-color="#808080" stop-opacity="0.1"/>
</linearGradient>
<linearGradient id="paint6_linear" x1="3612.18" y1="4503.01" x2="3612.18" y2="4259.06" gradientUnits="userSpaceOnUse">
<stop stop-color="#808080" stop-opacity="0.25"/>
<stop offset="0.54" stop-color="#808080" stop-opacity="0.12"/>
<stop offset="1" stop-color="#808080" stop-opacity="0.1"/>
</linearGradient>
<linearGradient id="paint7_linear" x1="3347.37" y1="4513.05" x2="3347.37" y2="4268.52" gradientUnits="userSpaceOnUse">
<stop stop-color="#808080" stop-opacity="0.25"/>
<stop offset="0.54" stop-color="#808080" stop-opacity="0.12"/>
<stop offset="1" stop-color="#808080" stop-opacity="0.1"/>
</linearGradient>
<linearGradient id="paint8_linear" x1="5537.24" y1="3661.13" x2="5537.24" y2="3482.21" gradientUnits="userSpaceOnUse">
<stop stop-color="#808080" stop-opacity="0.25"/>
<stop offset="0.54" stop-color="#808080" stop-opacity="0.12"/>
<stop offset="1" stop-color="#808080" stop-opacity="0.1"/>
</linearGradient>
<linearGradient id="paint9_linear" x1="4025.9" y1="28807.6" x2="4025.9" y2="17561.1" gradientUnits="userSpaceOnUse">
<stop stop-color="#808080" stop-opacity="0.25"/>
<stop offset="0.54" stop-color="#808080" stop-opacity="0.12"/>
<stop offset="1" stop-color="#808080" stop-opacity="0.1"/>
</linearGradient>
<linearGradient id="paint10_linear" x1="4200.38" y1="28795.2" x2="4200.38" y2="17553.4" gradientUnits="userSpaceOnUse">
<stop stop-color="#808080" stop-opacity="0.25"/>
<stop offset="0.54" stop-color="#808080" stop-opacity="0.12"/>
<stop offset="1" stop-color="#808080" stop-opacity="0.1"/>
</linearGradient>
<linearGradient id="paint11_linear" x1="4983.78" y1="28165.9" x2="4983.78" y2="17741.5" gradientUnits="userSpaceOnUse">
<stop stop-color="#808080" stop-opacity="0.25"/>
<stop offset="0.54" stop-color="#808080" stop-opacity="0.12"/>
<stop offset="1" stop-color="#808080" stop-opacity="0.1"/>
</linearGradient>
<linearGradient id="paint12_linear" x1="4262.4" y1="1977.23" x2="4262.4" y2="1548.12" gradientUnits="userSpaceOnUse">
<stop stop-color="#808080" stop-opacity="0.25"/>
<stop offset="0.54" stop-color="#808080" stop-opacity="0.12"/>
<stop offset="1" stop-color="#808080" stop-opacity="0.1"/>
</linearGradient>
<linearGradient id="paint13_linear" x1="5384.16" y1="2919.32" x2="5384.16" y2="2682.43" gradientUnits="userSpaceOnUse">
<stop stop-color="#808080" stop-opacity="0.25"/>
<stop offset="0.54" stop-color="#808080" stop-opacity="0.12"/>
<stop offset="1" stop-color="#808080" stop-opacity="0.1"/>
</linearGradient>
<linearGradient id="paint14_linear" x1="6777.6" y1="15753.1" x2="6777.6" y2="8004.38" gradientUnits="userSpaceOnUse">
<stop stop-color="#808080" stop-opacity="0.25"/>
<stop offset="0.54" stop-color="#808080" stop-opacity="0.12"/>
<stop offset="1" stop-color="#808080" stop-opacity="0.1"/>
</linearGradient>
<linearGradient id="paint15_linear" x1="3041.25" y1="6304.03" x2="3041.25" y2="4611.73" gradientUnits="userSpaceOnUse">
<stop stop-color="#808080" stop-opacity="0.25"/>
<stop offset="0.54" stop-color="#808080" stop-opacity="0.12"/>
<stop offset="1" stop-color="#808080" stop-opacity="0.1"/>
</linearGradient>
<linearGradient id="paint16_linear" x1="2368.99" y1="1417.66" x2="2368.99" y2="1218.08" gradientUnits="userSpaceOnUse">
<stop stop-color="#808080" stop-opacity="0.25"/>
<stop offset="0.54" stop-color="#808080" stop-opacity="0.12"/>
<stop offset="1" stop-color="#808080" stop-opacity="0.1"/>
</linearGradient>
<linearGradient id="paint17_linear" x1="4123.1" y1="2367.25" x2="4123.1" y2="1565.62" gradientUnits="userSpaceOnUse">
<stop stop-color="#808080" stop-opacity="0.25"/>
<stop offset="0.54" stop-color="#808080" stop-opacity="0.12"/>
<stop offset="1" stop-color="#808080" stop-opacity="0.1"/>
</linearGradient>
<linearGradient id="paint18_linear" x1="5252.01" y1="2899.28" x2="5252.01" y2="1871.52" gradientUnits="userSpaceOnUse">
<stop stop-color="#808080" stop-opacity="0.25"/>
<stop offset="0.54" stop-color="#808080" stop-opacity="0.12"/>
<stop offset="1" stop-color="#808080" stop-opacity="0.1"/>
</linearGradient>
<linearGradient id="paint19_linear" x1="4989.94" y1="3086.93" x2="4989.94" y2="1986.83" gradientUnits="userSpaceOnUse">
<stop stop-color="#808080" stop-opacity="0.25"/>
<stop offset="0.54" stop-color="#808080" stop-opacity="0.12"/>
<stop offset="1" stop-color="#808080" stop-opacity="0.1"/>
</linearGradient>
<linearGradient id="paint20_linear" x1="5655.22" y1="15431.5" x2="5655.22" y2="8110.71" gradientUnits="userSpaceOnUse">
<stop stop-color="#808080" stop-opacity="0.25"/>
<stop offset="0.54" stop-color="#808080" stop-opacity="0.12"/>
<stop offset="1" stop-color="#808080" stop-opacity="0.1"/>
</linearGradient>
<linearGradient id="paint21_linear" x1="4372.48" y1="1612.96" x2="4372.48" y2="1510.06" gradientUnits="userSpaceOnUse">
<stop stop-color="#808080" stop-opacity="0.25"/>
<stop offset="0.54" stop-color="#808080" stop-opacity="0.12"/>
<stop offset="1" stop-color="#808080" stop-opacity="0.1"/>
</linearGradient>
<linearGradient id="paint22_linear" x1="1369.82" y1="989.808" x2="1369.82" y2="958.811" gradientUnits="userSpaceOnUse">
<stop stop-color="#808080" stop-opacity="0.25"/>
<stop offset="0.54" stop-color="#808080" stop-opacity="0.12"/>
<stop offset="1" stop-color="#808080" stop-opacity="0.1"/>
</linearGradient>
<linearGradient id="paint23_linear" x1="5183.12" y1="6284.46" x2="5183.12" y2="4522.45" gradientUnits="userSpaceOnUse">
<stop stop-color="#808080" stop-opacity="0.25"/>
<stop offset="0.54" stop-color="#808080" stop-opacity="0.12"/>
<stop offset="1" stop-color="#808080" stop-opacity="0.1"/>
</linearGradient>
<linearGradient id="paint24_linear" x1="3674.46" y1="1075.42" x2="3674.46" y2="1047.08" gradientUnits="userSpaceOnUse">
<stop stop-color="#808080" stop-opacity="0.25"/>
<stop offset="0.54" stop-color="#808080" stop-opacity="0.12"/>
<stop offset="1" stop-color="#808080" stop-opacity="0.1"/>
</linearGradient>
</defs>
</svg>
